<svg width="512" height="512" viewBox="0 0 512 512" fill="none" xmlns="http://www.w3.org/2000/svg">
   <path
      d="M165.877 432.452C163.993 423.499 160.223 405.595 159.752 405.595C80.125 358.007 89.5484 275.553 115.934 228.437C121.588 287.804 226.658 328.795 165.406 401.355C164.935 402.297 168.233 413.605 171.06 423.971C183.31 403.239 201.686 378.267 200.743 375.912C125.357 192.157 360.94 178.022 409.941 64C432.086 174.253 398.633 344.815 209.224 388.162C208.282 388.633 174.829 447.529 173.416 448C173.416 447.058 159.281 447.529 161.166 442.817C162.108 439.99 163.993 436.221 165.877 432.452ZM212.523 350.94C182.839 280.736 270.005 203.465 313.352 184.147C224.773 263.303 209.696 322.199 212.523 350.94ZM163.521 388.162C187.551 360.363 159.281 312.775 142.319 297.227C171.06 346.699 169.175 375.44 163.521 388.162Z"
      fill="currentColor" />
</svg>